<svg width="22" height="22" viewBox="0 0 22 22" fill="none" xmlns="http://www.w3.org/2000/svg">
<circle cx="11" cy="11" r="11" fill="white"/>
<path d="M16.6376 10.094C15.5911 9.70761 14.4667 9.64908 13.3858 9.92465L12.0093 10.2756C11.9912 10.2802 11.9721 10.2776 11.956 10.2683L8.00145 8.00115C7.91967 7.95428 7.8229 7.94108 7.73149 7.96436L6.05989 8.39052C5.92483 8.42497 5.82148 8.53373 5.79395 8.67038C5.76645 8.807 5.81967 8.94729 5.93091 9.0313L8.57785 11.0304C8.62575 11.0666 8.61055 11.1421 8.55238 11.1569L7.58653 11.4032C7.56814 11.4078 7.54864 11.405 7.53231 11.3954L5.98879 10.4803C5.82312 10.382 5.60951 10.4305 5.50242 10.5906L4.88149 11.5193C4.78733 11.6601 4.80323 11.8474 4.91976 11.9703L6.79707 13.951C6.86644 14.0242 6.96202 14.0642 7.06029 14.0642C7.09013 14.0642 7.12019 14.0606 7.14986 14.053L16.5564 11.6549C16.911 11.5645 17.1525 11.2699 17.1715 10.9044C17.1905 10.5388 16.981 10.2208 16.6376 10.094Z" fill="black"/>
</svg>
