<svg width="22" height="22" viewBox="0 0 22 22" fill="none" xmlns="http://www.w3.org/2000/svg">
<circle cx="11" cy="11" r="11" fill="#5682FA"/>
<path d="M11.9662 6.0463C11.966 5.89629 11.9074 5.75246 11.8031 5.64638C11.6988 5.5403 11.5574 5.48064 11.4099 5.48047H10.5798C10.4323 5.48064 10.2909 5.5403 10.1866 5.64638C10.0823 5.75246 10.0236 5.89629 10.0234 6.0463V6.77767C10.0234 6.80806 10.0353 6.83721 10.0564 6.85869C10.0776 6.88018 10.1062 6.89226 10.1361 6.89226H11.8536C11.8834 6.89226 11.9121 6.88018 11.9332 6.85869C11.9543 6.83721 11.9662 6.80806 11.9662 6.77767V6.0463Z" fill="white"/>
<path d="M11.0907 9.01953L14.1743 9.83903C14.1909 9.84346 14.2084 9.84394 14.2253 9.84044C14.2421 9.83694 14.258 9.82956 14.2716 9.81885C14.2852 9.80815 14.2963 9.79441 14.3039 9.77868C14.3115 9.76296 14.3154 9.74568 14.3154 9.72817V7.76151C14.3154 7.70458 14.2932 7.64999 14.2536 7.60974C14.214 7.56949 14.1604 7.54688 14.1044 7.54688H7.91415C7.85818 7.54688 7.80451 7.56949 7.76493 7.60974C7.72536 7.64999 7.70313 7.70458 7.70313 7.76151V9.72817C7.70312 9.74568 7.70707 9.76296 7.71467 9.77868C7.72226 9.79441 7.73329 9.80815 7.74692 9.81885C7.76055 9.82956 7.77641 9.83694 7.79329 9.84044C7.81016 9.84394 7.8276 9.84345 7.84426 9.83903L10.9278 9.01953C10.9812 9.00536 11.0373 9.00536 11.0907 9.01953Z" fill="white"/>
<path d="M16.1777 14.602C15.822 14.602 15.6616 14.5207 15.4584 14.4178C15.3561 14.3636 15.2506 14.316 15.1425 14.2752C14.9828 14.2182 14.8162 14.1835 14.6474 14.1722C14.6297 14.1709 14.6125 14.1655 14.5973 14.1562C14.5821 14.1469 14.5693 14.1342 14.5598 14.1189C14.5504 14.1037 14.5446 14.0864 14.5429 14.0684C14.5413 14.0505 14.5438 14.0324 14.5503 14.0156L15.6718 11.1442C15.6813 11.118 15.6853 11.0901 15.6836 11.0623C15.6819 11.0345 15.6744 11.0073 15.6617 10.9826C15.6491 10.9579 15.6314 10.9361 15.61 10.9187C15.5885 10.9013 15.5638 10.8887 15.5372 10.8817L11.0285 9.68341C11.0098 9.67845 10.9902 9.67845 10.9715 9.68341L6.46271 10.8817C6.43617 10.8887 6.41138 10.9013 6.38993 10.9187C6.36848 10.9361 6.35085 10.9579 6.33818 10.9826C6.32551 11.0074 6.31807 11.0346 6.31635 11.0624C6.31463 11.0902 6.31867 11.1182 6.3282 11.1443L7.44723 14.0159C7.45371 14.0327 7.45623 14.0507 7.45458 14.0687C7.45292 14.0866 7.44714 14.1039 7.43771 14.1191C7.42827 14.1343 7.41544 14.1471 7.40025 14.1564C7.38506 14.1656 7.36794 14.1711 7.35028 14.1724C7.18143 14.1839 7.0149 14.2188 6.85531 14.2761C6.74797 14.3167 6.6432 14.3641 6.54162 14.4179C6.33979 14.5201 6.1801 14.6009 5.8293 14.602C5.65093 14.6026 5.49812 14.752 5.50002 14.9334C5.50094 15.0197 5.5353 15.1021 5.59563 15.1628C5.65596 15.2235 5.7374 15.2576 5.82226 15.2576C6.32955 15.2576 6.59484 15.1232 6.82889 15.0047C6.91567 14.9581 7.00571 14.918 7.09828 14.8847C7.21556 14.8453 7.35218 14.8206 7.54826 14.8206C7.593 14.8206 7.63464 14.8219 7.6737 14.8243C7.94501 14.8414 8.09 14.9148 8.26762 15.0047C8.50166 15.1233 8.76694 15.2576 9.27423 15.2576C9.78149 15.2576 10.0468 15.1233 10.2808 15.0047C10.484 14.9019 10.6445 14.8206 11.0001 14.8206C11.3558 14.8206 11.5163 14.9019 11.7194 15.0047C11.9535 15.1233 12.2187 15.2576 12.726 15.2576C13.2333 15.2576 13.4985 15.1233 13.7326 15.0047C13.9108 14.9145 14.0561 14.8409 14.3291 14.8242C14.3673 14.8218 14.4081 14.8206 14.4519 14.8206C14.6458 14.8206 14.7815 14.8448 14.8979 14.8835C14.9919 14.9169 15.0832 14.9574 15.1711 15.0047C15.4041 15.1227 15.6679 15.2563 16.1705 15.2576C16.2553 15.2583 16.337 15.2255 16.3985 15.1661C16.46 15.1067 16.4963 15.0253 16.4999 14.9391C16.5011 14.8953 16.4936 14.8517 16.478 14.8108C16.4624 14.77 16.4388 14.7328 16.4088 14.7013C16.3787 14.6699 16.3428 14.6449 16.3031 14.6279C16.2634 14.6108 16.2208 14.602 16.1777 14.602ZM8.02058 11.3533L10.9185 10.5831C10.9719 10.569 11.028 10.569 11.0814 10.5831L13.9793 11.3533C14.0203 11.3641 14.0588 11.3831 14.0926 11.4091C14.1264 11.435 14.1548 11.4675 14.1762 11.5047C14.1976 11.5418 14.2116 11.5829 14.2175 11.6256C14.2233 11.6683 14.2207 11.7117 14.21 11.7534C14.1993 11.795 14.1806 11.8342 14.1551 11.8685C14.1295 11.9028 14.0975 11.9317 14.0609 11.9534C14.0244 11.9752 13.984 11.9894 13.942 11.9952C13.9001 12.0011 13.8574 11.9985 13.8164 11.9876L11 11.2391L8.18352 11.9876C8.10084 12.0095 8.013 11.9971 7.9393 11.9531C7.86559 11.9092 7.81206 11.8373 7.79046 11.7532C7.76886 11.6691 7.78097 11.5798 7.82412 11.5048C7.86727 11.4298 7.93794 11.3753 8.02058 11.3533Z" fill="white"/>
</svg>
