<svg width="22" height="22" viewBox="0 0 22 22" fill="none" xmlns="http://www.w3.org/2000/svg">
<circle cx="11" cy="11" r="11" fill="#20AC93"/>
<path d="M17.6484 9.13487C17.5827 9.05245 17.4846 9.00434 17.3817 9.00434H16.1502C16.1038 9.00434 16.0624 8.97488 16.0457 8.93046C15.7266 8.08131 15.3162 7.26258 14.8515 6.94802C13.1974 5.82983 8.81011 5.82983 7.15605 6.94802C6.691 7.26294 6.28221 8.08275 5.96159 8.93071C5.94485 8.975 5.90345 9.00434 5.85722 9.00434H4.62555C4.52159 9.00434 4.42382 9.05245 4.35876 9.13487C4.29336 9.21694 4.2672 9.32554 4.28854 9.42989L4.48234 10.3949C4.51539 10.5594 4.65653 10.6768 4.81935 10.6768H4.96275C5.0583 10.6768 5.11172 10.7943 5.05739 10.8751C4.78428 11.2812 4.65102 11.7594 4.64896 12.2379C4.64655 12.9284 4.90163 13.5524 5.36807 13.9939C5.3774 14.0022 5.38322 14.0135 5.38322 14.0262V15.3565C5.38322 15.6491 5.61455 15.8872 5.89958 15.8872H7.10648C7.39151 15.8872 7.62283 15.6491 7.62283 15.3565V14.9285C7.62283 14.8652 7.67276 14.8139 7.73434 14.8139H14.2725C14.3341 14.8139 14.384 14.8652 14.384 14.9285V15.3565C14.384 15.6491 14.6154 15.8872 14.9004 15.8872H16.1073C16.3916 15.8872 16.6236 15.6491 16.6236 15.3565V14.0833C16.6236 14.0511 16.6369 14.0205 16.6595 13.9983C17.1301 13.5356 17.3552 12.9103 17.3582 12.286C17.36 11.7902 17.2207 11.2936 16.931 10.8766C16.8749 10.7959 16.9281 10.6761 17.0246 10.6761H17.1878C17.3514 10.6761 17.4925 10.5587 17.5249 10.3938L17.719 9.42918C17.739 9.32554 17.7138 9.21764 17.6484 9.13487ZM7.72301 7.83415C9.04144 6.94236 12.9654 6.94236 14.2832 7.83415C14.5238 7.99633 14.8291 8.62214 15.1155 9.40596C15.1427 9.48038 15.0889 9.55936 15.0115 9.55936H6.99525C6.91792 9.55936 6.86409 9.48043 6.89124 9.40603C7.17707 8.62254 7.4824 7.99699 7.72301 7.83415ZM6.17875 12.3709C6.17875 11.7943 6.63384 11.3274 7.1946 11.3274C7.75605 11.3274 8.21045 11.7943 8.21045 12.3709C8.21045 12.9475 7.75605 13.4148 7.1946 13.4148C6.63384 13.4148 6.17875 12.9475 6.17875 12.3709ZM14.8257 13.4148C14.2649 13.4148 13.8098 12.9475 13.8098 12.3709C13.8098 11.7943 14.2649 11.3274 14.8257 11.3274C15.3871 11.3274 15.8415 11.7943 15.8415 12.3709C15.8415 12.9475 15.3864 13.4148 14.8257 13.4148Z" fill="white"/>
</svg>
