<svg width="14" height="14" viewBox="0 0 14 14" fill="none" xmlns="http://www.w3.org/2000/svg">
<path d="M11.0472 6.26438V8.66092C11.0472 8.81669 11.0412 8.96647 11.0232 9.11027C10.885 10.7279 9.92961 11.5308 8.16906 11.5308H7.92872C7.7785 11.5308 7.63428 11.6027 7.54415 11.7225L6.82312 12.6811C6.50465 13.1065 5.9879 13.1065 5.66944 12.6811L4.94838 11.7225C4.87027 11.6206 4.69603 11.5308 4.56384 11.5308H4.32349C2.40671 11.5308 1.44531 11.0574 1.44531 8.66092V6.26438C1.44531 4.50892 2.25649 3.5563 3.87284 3.4185C4.01705 3.40053 4.16726 3.39453 4.32349 3.39453H8.16906C10.0858 3.39453 11.0472 4.35315 11.0472 6.26438Z" stroke="#37383A" stroke-miterlimit="10" strokeLinecap="round" stroke-linejoin="round"/>
<path d="M13.4451 3.86985V6.26639C13.4451 8.02784 12.6339 8.97447 11.0176 9.11227C11.0356 8.96848 11.0416 8.81869 11.0416 8.66292V6.26639C11.0416 4.35515 10.0802 3.39653 8.16341 3.39653H4.31784C4.16161 3.39653 4.0114 3.40253 3.86719 3.4205C4.00539 1.80883 4.96077 1 6.72133 1H10.5669C12.4837 1 13.4451 1.95862 13.4451 3.86985Z" stroke="#37383A" stroke-miterlimit="10" strokeLinecap="round" stroke-linejoin="round"/>
</svg>
