<svg width="11" height="12" viewBox="0 0 11 12" fill="none" xmlns="http://www.w3.org/2000/svg">
<path fillRule="evenodd" clipRule="evenodd" d="M7.84762 1.68372C8.84283 1.35199 9.43172 1.51579 9.70616 1.79064C9.98121 2.0661 10.1444 2.65754 9.81535 3.65294L8.22266 8.431C7.96597 9.20241 7.6801 9.74179 7.40212 10.0784C7.12278 10.4167 6.89755 10.4994 6.74948 10.4994C6.60142 10.4994 6.37619 10.4167 6.09685 10.0784C5.81887 9.74179 5.53291 9.20216 5.27623 8.43075L4.86733 7.20407L6.80278 5.26322C6.99778 5.06768 6.99733 4.7511 6.8018 4.55611C6.60627 4.36112 6.28968 4.36156 6.09469 4.5571L4.0928 6.56458L3.06844 6.22313C2.29689 5.9664 1.75743 5.68082 1.42075 5.40318C1.08242 5.12417 1 4.8995 1 4.75207C1 4.60448 1.08258 4.37937 1.42116 4.09957C1.75796 3.82124 2.29774 3.53461 3.06919 3.27653L7.84762 1.68372ZM10.7648 3.96692C11.1448 2.81795 11.0801 1.75141 10.4138 1.08406C9.74681 0.416075 8.6808 0.351903 7.5314 0.735039L2.75196 2.32818C1.9165 2.60765 1.25081 2.94306 0.784131 3.32873C0.319183 3.71296 0 4.19393 0 4.75207C0 5.31036 0.319342 5.79106 0.784533 6.17468C1.25133 6.55963 1.91733 6.89399 2.75271 7.17198L3.93377 7.56567L4.32754 8.74698C4.60559 9.58251 4.94027 10.2483 5.32576 10.7152C5.70993 11.1804 6.19112 11.4994 6.74948 11.4994C7.30785 11.4994 7.78904 11.1804 8.17321 10.7152C8.55869 10.2483 8.89346 9.58226 9.17151 8.74673L10.7648 3.96692Z" fill="#37383A"/>
</svg>
