<svg width="4" height="4" viewBox="0 0 15 4" fill="none" xmlns="http://www.w3.org/2000/svg">
<path fillRule="evenodd" clipRule="evenodd" d="M12.25 0.670819C12.25 0.596284 12.325 0.52175 12.4 0.52175C12.425 0.52175 12.45 0.52175 12.475 0.546591L14.3 1.6646C14.425 1.73914 14.5 1.86336 14.5 2.01243C14.5 2.1615 14.425 2.28573 14.3 2.36026L12.475 3.47827C12.45 3.50311 12.425 3.50311 12.4 3.50311C12.325 3.50311 12.25 3.42858 12.25 3.35405V0.670819ZM9.5 3.35405C9.5 3.42858 9.575 3.50311 9.65 3.50311C9.675 3.50311 9.70001 3.50311 9.725 3.47827L11.55 2.36026C11.675 2.28573 11.75 2.1615 11.75 2.01243C11.75 1.86336 11.675 1.73914 11.55 1.6646L9.725 0.546591C9.70001 0.52175 9.675 0.52175 9.65 0.52175C9.575 0.52175 9.5 0.596284 9.5 0.670819V3.35405ZM11.75 2.83231L9.975 3.90063C9.875 3.97516 9.75 4 9.65 4C9.275 4 9 3.7267 9 3.35403V0.645966C9 0.298148 9.275 0.0248524 9.65 0.0248524C9.77501 0.0248524 9.875 0.0496935 9.975 0.124228L11.75 1.19255V0.645966C11.75 0.298136 12.025 -8.02711e-08 12.4 -8.02711e-08C12.525 -8.02711e-08 12.625 0.024841 12.725 0.0993751L14.55 1.21739C14.825 1.3913 15 1.68943 15 1.98757C15 2.2857 14.825 2.60868 14.55 2.75775L12.725 3.87576C12.625 3.97514 12.5 3.99999 12.4 3.99999C12.025 3.99999 11.75 3.72669 11.75 3.35402V2.83231Z" fill="#292D32"/>
<path fillRule="evenodd" clipRule="evenodd" d="M2.75 3.32918C2.75 3.40372 2.675 3.47825 2.6 3.47825C2.57501 3.47825 2.55 3.47825 2.525 3.45341L0.700008 2.3354C0.575004 2.26086 0.500004 2.13664 0.500004 1.98757C0.500004 1.8385 0.575004 1.71427 0.700008 1.63974L2.525 0.521727C2.55 0.496886 2.57501 0.496886 2.6 0.496886C2.675 0.496886 2.75 0.57142 2.75 0.645954L2.75 3.32918ZM5.5 0.645954C5.5 0.57142 5.425 0.496886 5.35 0.496886C5.325 0.496886 5.29999 0.496886 5.275 0.521727L3.45 1.63974C3.325 1.71427 3.25 1.8385 3.25 1.98757C3.25 2.13664 3.325 2.26086 3.45 2.3354L5.275 3.45341C5.29999 3.47825 5.325 3.47825 5.35 3.47825C5.425 3.47825 5.5 3.40372 5.5 3.32918L5.5 0.645954ZM3.25 1.16769L5.025 0.0993749C5.125 0.0248408 5.25 -6.55671e-08 5.35 -5.68251e-08C5.725 -2.40416e-08 6 0.273295 6 0.645966L6 3.35403C6 3.70185 5.725 3.97515 5.35 3.97515C5.22499 3.97515 5.125 3.95031 5.025 3.87577L3.25 2.80745L3.25 3.35403C3.25 3.70186 2.97499 4 2.59999 4C2.47499 4 2.37499 3.97516 2.275 3.90062L0.45 2.78261C0.174996 2.6087 -2.01996e-07 2.31057 -1.75932e-07 2.01243C-1.49868e-07 1.7143 0.174996 1.39132 0.45 1.24225L2.275 0.124239C2.37499 0.0248638 2.5 1.13336e-05 2.59999 1.13423e-05C2.97499 1.13751e-05 3.25 0.273307 3.25 0.645977L3.25 1.16769Z" fill="#292D32"/>
</svg>
