<svg width="3" height="11" viewBox="0 0 3 11" fill="none" xmlns="http://www.w3.org/2000/svg">
<path fillRule="evenodd" clipRule="evenodd" d="M1.5 4C0.672 4 0 4.672 0 5.5C0 6.328 0.672 7 1.5 7C2.328 7 3 6.328 3 5.5C3 4.672 2.328 4 1.5 4Z" fill="#87949E"/>
<path fillRule="evenodd" clipRule="evenodd" d="M1.5 8C0.672 8 0 8.672 0 9.5C0 10.329 0.672 11 1.5 11C2.328 11 3 10.329 3 9.5C3 8.672 2.328 8 1.5 8Z" fill="#87949E"/>
<path fillRule="evenodd" clipRule="evenodd" d="M3 1.5C3 2.328 2.328 3 1.5 3C0.672 3 0 2.328 0 1.5C0 0.671 0.672 0 1.5 0C2.328 0 3 0.671 3 1.5Z" fill="#87949E"/>
</svg>
