<svg width="12" height="12" viewBox="0 0 12 12" fill="none" xmlns="http://www.w3.org/2000/svg">
<path d="M11.4223 1.12428C11.319 0.876387 11.1216 0.679603 10.8734 0.577131C10.7515 0.524052 10.6196 0.497797 10.4867 0.500145H1.51202C1.24392 0.501349 0.987094 0.608106 0.797143 0.7973C0.702914 0.890971 0.628146 1.00236 0.577149 1.12505C0.526152 1.24774 0.499933 1.37931 0.5 1.51217V10.4856C0.500045 10.7543 0.606682 11.012 0.796514 11.2022C0.986346 11.3924 1.24387 11.4995 1.51257 11.5H10.4879C10.7563 11.499 11.0136 11.3922 11.2039 11.2028C11.2976 11.1082 11.3722 10.9964 11.4235 10.8735C11.4746 10.7506 11.501 10.6188 11.501 10.4856V1.51154C11.5003 1.37855 11.4736 1.24699 11.4223 1.12428ZM1.18623 1.51332C1.18648 1.42678 1.22093 1.34384 1.28207 1.28259C1.3432 1.22133 1.42607 1.18672 1.51261 1.1863L4.16314 1.18752V3.40241C4.16219 3.52324 4.20107 3.64102 4.27376 3.73754C4.34645 3.83407 4.44891 3.90396 4.56531 3.93642C4.63582 3.95617 4.7096 3.96144 4.78221 3.9519C4.85481 3.94236 4.92473 3.91822 4.98775 3.88093L5.80938 3.3738C5.86463 3.34523 5.92562 3.32953 5.98779 3.32786C6.0508 3.3287 6.11295 3.34251 6.17037 3.36844L7.05227 3.90367C7.13648 3.94517 7.23008 3.96389 7.32376 3.95797C7.41773 3.95311 7.50881 3.92391 7.5881 3.87325C7.66794 3.82451 7.73367 3.75577 7.77877 3.67382C7.82388 3.59187 7.8468 3.49957 7.84527 3.40604L7.84461 1.1863H10.4867C10.5295 1.18625 10.5719 1.19466 10.6114 1.21104C10.6509 1.22742 10.6868 1.25146 10.717 1.28176C10.747 1.3122 10.7713 1.34777 10.7886 1.38678C10.8042 1.42674 10.8123 1.46921 10.8125 1.51209V10.4856C10.8122 10.5721 10.7779 10.6549 10.7169 10.7161C10.6559 10.7774 10.5731 10.812 10.4867 10.8126H1.51321C1.42666 10.8121 1.3438 10.7775 1.28259 10.7163C1.22138 10.6551 1.18676 10.5722 1.18623 10.4856V1.51332ZM6.51758 2.77709L6.48179 2.75741C6.3309 2.68226 6.16466 2.64305 5.99609 2.64285L5.97401 2.64344C5.79212 2.64721 5.61407 2.69644 5.45609 2.78665L4.84866 3.16077L4.84926 1.1863L7.15723 1.18752L7.15845 3.16792L6.51758 2.77709Z" fill="white"/>
<path d="M7.98976 9.08641C8.02408 9.10278 8.0616 9.11131 8.09962 9.1114H9.11022L8.96583 9.2561C8.93881 9.2831 8.91817 9.31581 8.90544 9.35183C8.89271 9.38784 8.88821 9.42625 8.89227 9.46424C8.89632 9.50222 8.90883 9.53882 8.92887 9.57133C8.94892 9.60385 8.97599 9.63147 9.00811 9.65215C9.04968 9.67816 9.09774 9.69191 9.14677 9.69183C9.15739 9.69191 9.168 9.69131 9.17854 9.69004C9.23758 9.68289 9.29241 9.65582 9.33398 9.61329L9.82877 9.11857C9.86323 9.08404 9.89071 9.04319 9.9097 8.99826C9.93812 8.93024 9.94561 8.85529 9.93119 8.783C9.91677 8.7107 9.88111 8.64436 9.82877 8.59244L9.33457 8.09884C9.29299 8.05593 9.23794 8.02861 9.17862 8.02142C9.11931 8.01424 9.05933 8.02764 9.00871 8.05938C8.97634 8.08033 8.94917 8.10839 8.92928 8.14143C8.9098 8.17383 8.8977 8.21013 8.89384 8.24774C8.89025 8.28569 8.89496 8.32397 8.90764 8.35992C8.92033 8.39551 8.94073 8.42786 8.96738 8.45465L9.1129 8.60015H8.1039C8.04582 8.60023 7.98943 8.61965 7.94362 8.65535C7.90441 8.68506 7.87474 8.72559 7.85828 8.77195C7.84182 8.81831 7.83928 8.86847 7.85098 8.91625C7.86024 8.95303 7.87743 8.98735 7.90133 9.0168C7.92527 9.04628 7.95548 9.07006 7.98976 9.08641Z" fill="white"/>
</svg>
