<svg width="22" height="22" viewBox="0 0 22 22" fill="none" xmlns="http://www.w3.org/2000/svg">
<circle cx="11" cy="11" r="11" fill="#FAB543"/>
<path d="M15.2428 15.7655L14.4124 14.1149C14.3822 14.0549 14.415 13.9849 14.4809 13.9555C14.95 13.7468 15.2718 13.3142 15.2718 12.8142V7.71285C15.2718 7.00958 14.6346 6.4375 13.8483 6.4375H8.14477C7.35849 6.4375 6.71889 7.00958 6.71889 7.71285V12.8143C6.71889 13.3142 7.0427 13.7468 7.51221 13.9556C7.57811 13.9849 7.61088 14.0549 7.58068 14.1149L6.75022 15.7655C6.66944 15.9261 6.74953 16.1148 6.92914 16.1871C7.1065 16.259 7.3192 16.1889 7.40049 16.0272L7.6997 15.4325C7.72039 15.3914 7.76612 15.365 7.81653 15.365H14.1765C14.2269 15.365 14.2727 15.3914 14.2933 15.4325L14.5926 16.0272C14.6738 16.1888 14.8865 16.259 15.0639 16.1871C15.2436 16.1148 15.3236 15.9262 15.2428 15.7655ZM7.59415 8.4618C7.59415 8.39852 7.65151 8.34722 7.72226 8.34722H10.5193C10.59 8.34722 10.6474 8.39852 10.6474 8.4618V10.7913C10.6474 10.8547 10.5898 10.9061 10.5188 10.9059L8.98396 10.9012C8.86634 10.9012 8.04367 10.9044 7.72233 10.9057C7.65135 10.906 7.59415 10.8546 7.59415 10.7911V8.4618ZM9.57067 12.4954C9.57067 12.6715 9.41101 12.8143 9.21419 12.8143H8.50125C8.30444 12.8143 8.14477 12.6715 8.14477 12.4954C8.14477 12.3193 8.30446 12.1766 8.50125 12.1766H9.21419C9.41098 12.1766 9.57067 12.3193 9.57067 12.4954ZM8.25265 14.7273C8.15969 14.7273 8.09768 14.6415 8.13582 14.5657L8.34135 14.1572C8.36204 14.116 8.40776 14.0896 8.45818 14.0896H13.5349C13.5853 14.0896 13.631 14.116 13.6517 14.1572L13.8572 14.5657C13.8954 14.6415 13.8334 14.7273 13.7404 14.7273H8.25265ZM12.4224 12.4954C12.4224 12.3193 12.5821 12.1766 12.7789 12.1766H13.4918C13.6886 12.1766 13.8483 12.3193 13.8483 12.4954C13.8483 12.6715 13.6886 12.8143 13.4918 12.8143H12.7789C12.5821 12.8143 12.4224 12.6715 12.4224 12.4954ZM14.4052 10.7911C14.4052 10.8546 14.348 10.906 14.277 10.9057C13.9545 10.9045 13.1268 10.9012 13.0091 10.9012L11.4805 10.9059C11.4096 10.9061 11.352 10.8547 11.352 10.7913V8.4618C11.352 8.39852 11.4093 8.34722 11.4801 8.34722H14.2771C14.3478 8.34722 14.4052 8.39852 14.4052 8.4618V10.7911Z" fill="#2F323A"/>
</svg>
