<svg width="16" height="12" viewBox="0 0 16 12" fill="none" xmlns="http://www.w3.org/2000/svg">
<path d="M15.4416 5.93049L13.2978 2.71937C13.2661 2.67222 13.223 2.63349 13.1722 2.60668C13.1208 2.57896 13.0629 2.56458 13.0041 2.56492L10.2555 2.5779V1.41067C10.2549 1.29068 10.23 1.172 10.1822 1.06149C10.1344 0.950976 10.0646 0.850825 9.977 0.766825C9.79888 0.595754 9.55917 0.499933 9.3095 0.5H1.44488C1.19533 0.499763 0.955744 0.595758 0.778125 0.767155C0.690303 0.850991 0.62047 0.951116 0.572713 1.06167C0.524956 1.17222 0.500235 1.29098 0.5 1.41099V9.78547C0.500272 9.82986 0.509498 9.87377 0.527151 9.91466C0.544804 9.95556 0.570535 9.99265 0.602873 10.0238C0.668655 10.0869 0.757096 10.1223 0.84925 10.1224L1.72413 10.1116C1.80352 10.5039 2.0211 10.8566 2.339 11.1082C2.65925 11.3617 3.05879 11.5 3.47081 11.5C3.88284 11.5 4.28238 11.3617 4.60263 11.1082C4.91819 10.8612 5.13271 10.5117 5.20725 10.1232L10.783 10.1109C10.8625 10.5031 11.08 10.8558 11.3978 11.1075C11.718 11.361 12.1175 11.4993 12.5296 11.4993C12.9416 11.4993 13.3411 11.361 13.6614 11.1075C13.9774 10.8612 14.1914 10.5112 14.2639 10.1224H15.1508C15.2427 10.1224 15.3309 10.0872 15.3968 10.0245C15.4295 9.99343 15.4554 9.95627 15.4732 9.91522C15.4909 9.87416 15.5 9.83004 15.5 9.78547V6.11268C15.4986 6.04775 15.4784 5.98455 15.4416 5.93045V5.93049ZM2.41113 9.58217C2.45296 9.37996 2.5559 9.19469 2.70663 9.05033C2.85853 8.9042 3.05123 8.80527 3.2605 8.76597C3.33026 8.75267 3.40117 8.74597 3.47225 8.74596C3.64896 8.74587 3.82303 8.78786 3.97942 8.86829C4.13581 8.94872 4.26983 9.06518 4.36988 9.20759C4.50848 9.407 4.57095 9.64772 4.54634 9.88761C4.52172 10.1275 4.4116 10.3513 4.23525 10.5198C4.05697 10.6905 3.8243 10.7964 3.57594 10.8198C3.32758 10.8433 3.0785 10.7828 2.87012 10.6486C2.69325 10.5352 2.55485 10.373 2.4725 10.1825C2.39076 9.99296 2.36937 9.78375 2.41113 9.58217ZM3.46825 8.07299C3.0563 8.07295 2.65681 8.21112 2.3365 8.46441C2.02087 8.7112 1.80701 9.06113 1.73425 9.44983L1.1985 9.46246L1.18625 7.36879L9.55625 7.35615L9.56863 9.44738L5.21488 9.46103C5.13525 9.06883 4.91777 8.71624 4.60013 8.46439C4.27975 8.21113 3.88023 8.07298 3.46825 8.073V8.07299ZM1.1985 6.70878V1.41099C1.19857 1.37993 1.20496 1.3492 1.21727 1.32058C1.22959 1.29195 1.2476 1.266 1.27025 1.24424C1.31714 1.19969 1.37987 1.17464 1.44525 1.17438H9.3095C9.37516 1.17414 9.43824 1.19939 9.48488 1.24458C9.50742 1.26635 9.52534 1.29225 9.53761 1.32081C9.54988 1.34936 9.55625 1.38001 9.55637 1.41099L9.56863 6.69467L1.1985 6.70878ZM11.4331 5.79055V3.23855L12.8361 3.23817L14.5316 5.77782L11.4331 5.79055ZM11.4678 9.58252C11.5094 9.38043 11.6122 9.19524 11.7629 9.05103C11.9148 8.90464 12.1077 8.80547 12.3171 8.76597C12.5269 8.72578 12.7441 8.7464 12.942 8.82529C13.1384 8.90328 13.3069 9.03628 13.4262 9.20759C13.5649 9.40697 13.6274 9.64765 13.6028 9.88754C13.5783 10.1274 13.4683 10.3512 13.292 10.5198C13.111 10.6858 12.8788 10.7884 12.6318 10.8117C12.3848 10.8351 12.1369 10.7777 11.9267 10.6486C11.7496 10.5354 11.6111 10.3729 11.5291 10.1821C11.4474 9.99282 11.426 9.78384 11.4678 9.58249V9.58252ZM12.5271 8.06982C12.1152 8.06995 11.7158 8.20824 11.3956 8.46161C11.0802 8.70878 10.8657 9.05822 10.791 9.44666L10.2555 9.45965L10.2425 3.23999L10.7476 3.23851V6.11441C10.7485 6.20455 10.7858 6.29069 10.8514 6.35408C10.9169 6.41746 11.0054 6.45295 11.0976 6.45282L14.7994 6.43984L14.8038 6.69471H14.4559C14.3215 6.69016 14.1881 6.71794 14.0673 6.7756C13.9465 6.83327 13.842 6.91906 13.763 7.02544C13.6844 7.13156 13.6339 7.25504 13.6159 7.38489C13.5979 7.51473 13.6131 7.6469 13.66 7.76963C13.7001 7.87023 13.7599 7.96218 13.8361 8.04029C13.9137 8.11862 14.0067 8.18082 14.1095 8.22317C14.2123 8.26552 14.3227 8.28714 14.4342 8.28673L14.7994 8.27411L14.8124 9.44593L14.2741 9.45857C14.1947 9.06615 13.9772 8.71336 13.6593 8.46157C13.3389 8.20808 12.9392 8.06978 12.5271 8.06979V8.06982ZM14.3088 7.50149C14.3068 7.48557 14.3083 7.46945 14.313 7.4541C14.3247 7.42149 14.3491 7.39472 14.3809 7.37967C14.3982 7.37247 14.4169 7.36877 14.4358 7.36879L14.8009 7.35615L14.808 7.61282H14.4444C14.4109 7.61278 14.3784 7.60122 14.3527 7.58017C14.3288 7.56006 14.3131 7.53207 14.3088 7.50146V7.50149Z" fill="#37383A"/>
</svg>
