<svg id="Layer_1" data-name="Layer 1" xmlns="http://www.w3.org/2000/svg" viewBox="0 0 64 64"><defs><style>.cls-1{fill:#02c361;}.cls-2{fill:#fff;}</style></defs><title>walk</title><circle class="cls-1" cx="32" cy="32" r="32"/><path class="cls-2" d="M33.86,19.44a3.72,3.72,0,1,0-3.72-3.72A3.73,3.73,0,0,0,33.86,19.44Z"/><path class="cls-2" d="M44.09,33.4V29.67A9.54,9.54,0,0,1,36,25.12l-1.77-3a3.62,3.62,0,0,0-3.16-1.77,3.88,3.88,0,0,0-1.4.28l-9.76,4V33.4h3.72V27.16l3.25-1.39L21.77,52h3.9l3.26-14.88,4,3.72V52h3.72V38l-3.81-3.81L34,28.56A13,13,0,0,0,44.09,33.4Z"/></svg>