<?xml version="1.0" standalone="no"?>
<!DOCTYPE svg PUBLIC "-//W3C//DTD SVG 20010904//EN"
 "http://www.w3.org/TR/2001/REC-SVG-20010904/DTD/svg10.dtd">
<svg version="1.0" xmlns="http://www.w3.org/2000/svg"
 width="700.000000pt" height="700.000000pt" viewBox="0 0 700.000000 700.000000"
 preserveAspectRatio="xMidYMid meet">
<metadata>
Created by potrace 1.14, written by Peter Selinger 2001-2017
</metadata>
<g transform="translate(0.000000,700.000000) scale(0.100000,-0.100000)"
fill="#000000" stroke="none">
<path d="M1695 6990 c-27 -4 -72 -11 -99 -14 -27 -4 -52 -9 -55 -11 -3 -1 -24
-6 -46 -9 -68 -11 -185 -46 -290 -88 -653 -257 -1104 -842 -1192 -1543 -10
-77 -10 -3559 -1 -3645 62 -549 371 -1052 839 -1365 140 -93 412 -218 523
-241 10 -2 33 -8 50 -13 36 -12 157 -36 236 -48 68 -10 3557 -11 3655 -1 381
39 776 219 1064 483 178 163 311 339 420 555 32 63 60 124 63 135 4 11 16 47
28 80 26 69 65 211 75 270 4 22 8 51 11 65 2 14 8 54 13 90 6 38 10 795 10
1810 0 1806 0 1813 -39 1995 -29 133 -81 287 -136 402 -24 51 -44 94 -44 97 0
17 -186 290 -230 337 -144 154 -198 205 -305 286 -241 183 -557 318 -840 358
-27 4 -59 10 -70 14 -30 8 -3582 10 -3640 1z"/>
</g>
</svg>
